<?xml version="1.0" encoding="UTF-8"?>
<svg width="181px" height="55px" viewBox="0 0 181 55" version="1.1" xmlns="http://www.w3.org/2000/svg" xmlns:xlink="http://www.w3.org/1999/xlink">
    <!-- Generator: Sketch 47.1 (45422) - http://www.bohemiancoding.com/sketch -->
    <title>zipify_pages_logo_sm@3x</title>
    <desc>Created with Sketch.</desc>
    <defs>
        <polygon id="path-1" points="0.20229116 25.4262295 21.3528989 25.4262295 21.3528989 0.172357377 0.20229116 0.172357377"></polygon>
        <polygon id="path-3" points="16.7249659 19.0675082 16.7249659 0.136327869 0.241853434 0.136327869 0.241853434 19.0675082 16.7249659 19.0675082"></polygon>
    </defs>
    <g id="Mockups" stroke="none" stroke-width="1" fill="none" fill-rule="evenodd">
        <g id="Zipify-products" transform="translate(-334.000000, -678.000000)">
            <g id="Stacked-Group" transform="translate(200.000000, 558.000000)">
                <g id="Products" transform="translate(0.000000, 72.000000)">
                    <g id="Row-1">
                        <g id="Stacked-Group">
                            <g id="Zipify-pages">
                                <g id="zipify_pages_logo_sm" transform="translate(134.000000, 48.000000)">
                                    <polygon id="Fill-1" fill="#3BA949" points="17.2445459 5.40983606e-05 15.6044202 10.4120951 14.621154 16.651259 24.9836192 16.651259 25.9666156 10.4120951 48.7190434 10.4120951 45.1172411 33.2740623 38.9446496 33.2740623 37.3042542 43.6861033 43.4768456 43.6861033 53.8393108 43.6861033 55.4794365 33.2740623 59.0812388 10.4120951 60.7216343 5.40983606e-05"></polygon>
                                    <polygon id="Fill-2" fill="#3BA949" points="13.6428784 22.8617508 13.6369437 22.8985377 12.0027527 33.2740623 1.64028754 33.2740623 -0.000107903006 43.6861033 10.3620875 43.6861033 8.72196182 54.0984148 19.0841572 54.0984148 20.7245527 43.6861033 31.0867481 43.6861033 32.7268738 33.2740623 22.3649481 33.2740623 24.0050738 22.8617508"></polygon>
                                    <g id="Group-31" transform="translate(76.880892, 0.000000)">
                                        <path d="M12.8381378,35.1672615 C15.8658961,35.1672615 17.9362851,33.4331385 18.337954,30.8315484 C18.7231677,28.3386959 17.1995773,26.5323516 14.1718189,26.5323516 L7.14274738,26.5323516 L5.80906622,35.1672615 L12.8381378,35.1672615 Z M14.7132223,23.0278598 C20.0479469,23.0278598 22.9092648,26.2072205 22.1949469,30.8315484 C21.469569,35.5286385 17.6260639,38.7074582 12.2913393,38.7074582 L5.26226774,38.7074582 L3.94531156,47.2341713 L0.0883186103,47.2341713 L3.82742752,23.0278598 L14.7132223,23.0278598 Z" id="Fill-3" fill="#272C30"></path>
                                        <path d="M38.2031132,38.2740762 C38.7833616,34.5166746 36.2322648,32.1322893 33.2765317,32.1322893 C29.9960106,32.1322893 27.068602,34.5166746 26.4883536,38.2740762 C25.9021705,42.0677238 28.098806,44.4161336 31.3793271,44.4161336 C34.3350602,44.4161336 37.6171999,42.0677238 38.2031132,38.2740762 L38.2031132,38.2740762 Z M40.5680773,47.2341172 L36.8192571,47.2341172 L37.1373012,45.1748631 C35.3361303,46.8005189 32.9563295,47.7396664 30.2528197,47.7396664 C25.5668619,47.7396664 21.9715338,43.9462893 22.8474364,38.2740762 C23.7182137,32.638109 28.4910334,28.8084861 33.1767214,28.8084861 C35.880501,28.8084861 37.9700427,29.7479041 39.2689251,31.3735598 L39.5869692,29.3143057 L43.3357894,29.3143057 L40.5680773,47.2341172 Z" id="Fill-5" fill="#272C30"></path>
                                        <g id="Group-9" transform="translate(43.970475, 28.672131)">
                                            <mask id="mask-2" fill="white">
                                                <use xlink:href="#path-1"></use>
                                            </mask>
                                            <g id="Clip-8"></g>
                                            <path d="M16.4514048,8.80726721 C16.9644836,5.48346393 14.662373,3.35171803 11.7427874,3.35171803 C8.53456127,3.35171803 5.68214531,5.48346393 5.16906652,8.80726721 C4.66111312,12.0950951 6.84965584,14.2625459 10.0576122,14.2625459 C12.9774675,14.2625459 15.9434514,12.0950951 16.4514048,8.80726721 L16.4514048,8.80726721 Z M18.8309359,16.9723328 C18.0049383,22.3194148 13.8485146,25.4262836 8.26129691,25.4262836 C3.97188267,25.4262836 1.23114632,23.8006279 0.20229116,21.1270869 L3.6174213,18.8508984 C4.62739343,20.9466689 5.93787544,22.0305295 8.78570552,22.0305295 C12.1741297,22.0305295 14.7379051,19.8987836 15.2739133,16.4305377 L15.4524927,15.2741852 C13.8595746,16.719423 11.6823617,17.5143984 8.94243464,17.5143984 C4.36464961,17.5143984 0.758261398,13.7932426 1.5284191,8.80726721 C2.29830705,3.8212918 7.04334173,0.172357377 11.620857,0.172357377 C14.3607841,0.172357377 16.2925176,0.967332787 17.4389871,2.4123 L17.7122514,0.642201639 L21.3528989,0.642201639 L18.8309359,16.9723328 Z" id="Fill-7" fill="#272C30" mask="url(#mask-2)"></path>
                                        </g>
                                        <path d="M71.4582261,36.5037344 L81.9838946,36.5037344 C81.8589969,33.5775541 80.0278828,32.1323164 77.5765963,32.1323164 C75.2334825,32.1323164 72.4811466,33.6135295 71.4582261,36.5037344 L71.4582261,36.5037344 Z M85.427619,39.1772754 L70.9370546,39.1772754 C70.7841021,42.5010787 72.8922571,44.488382 75.5237416,44.488382 C77.5061896,44.488382 79.6143446,43.9100705 81.2663396,41.3812426 L84.5072064,42.1039967 C82.4486868,45.8611279 78.9866188,47.7396934 75.0214531,47.7396934 C70.1550276,47.7396934 66.482279,43.9825623 67.3581817,38.3103492 C68.240019,32.6016197 73.0433213,28.8085131 78.0896751,28.8085131 C82.8838057,28.8085131 86.279783,32.493423 85.6283186,37.8767508 L85.427619,39.1772754 Z" id="Fill-10" fill="#272C30"></path>
                                        <g id="Group-14" transform="translate(86.592162, 28.672131)">
                                            <mask id="mask-4" fill="white">
                                                <use xlink:href="#path-3"></use>
                                            </mask>
                                            <g id="Clip-13"></g>
                                            <path d="M4.11525879,12.9619672 C4.0383779,15.0934426 5.77318847,15.9966148 8.11630225,15.9966148 C10.2789482,15.9966148 11.7993016,15.0212213 12.0169959,13.6122295 C12.1845153,12.5283689 11.5335904,11.8418607 9.93123081,11.4807541 L6.16083002,10.6860492 C3.16706113,9.99954098 1.65776783,8.33763934 2.04810695,5.80854098 C2.56172526,2.4847377 5.69954467,0.136327869 9.98895891,0.136327869 C14.0984449,0.136327869 16.5392109,2.30377869 16.7250738,5.30272131 L13.0393769,6.06145082 C13.0186056,4.32732787 11.7248485,3.135 9.41788226,3.135 C7.21908875,3.135 6.07828422,4.21886066 5.88297978,5.48340984 C5.72679018,6.49504918 6.20345171,7.14504098 7.73324658,7.50641803 L11.8419233,8.44556557 C14.6304067,9.06012295 16.1343049,10.758 15.7439657,13.2870984 C15.1637173,17.0445 11.7871625,19.0675082 7.31755025,19.0675082 C3.31623703,19.0675082 0.154409201,17.3696311 0.243698939,13.7566721 L4.11525879,12.9619672 Z" id="Fill-12" fill="#272C30" mask="url(#mask-4)"></path>
                                        </g>
                                        <polygon id="Fill-15" fill="#3BA949" points="12.7904447 14.6351213 13.2064107 12.004318 9.4516559 12.004318 14.6202099 5.69726066 5.7201002 5.69726066 5.30440387 8.32806393 8.93749807 8.32806393 3.7511401 14.6351213"></polygon>
                                        <path d="M17.9759124,4.04209426 C18.9491975,4.04209426 19.8755449,3.24062705 20.0298461,2.26496311 C20.1841474,1.28929918 19.5111024,0.487831967 18.5375476,0.487831967 C17.5642625,0.487831967 16.6379152,1.28929918 16.4838836,2.26496311 C16.3295823,3.24062705 17.0026273,4.04209426 17.9759124,4.04209426" id="Fill-17" fill="#3BA949"></path>
                                        <polygon id="Fill-19" fill="#3BA949" points="19.2962406 5.69726066 16.1322547 5.69726066 14.7198044 14.6351213 17.8835205 14.6351213"></polygon>
                                        <path d="M23.9769651,10.1749008 C24.1504192,9.07724508 25.0438561,8.15405656 26.3300599,8.15405656 C27.6165335,8.15405656 28.2180927,9.07724508 28.0446386,10.1749008 C27.8655197,11.30745 26.9804452,12.1787041 25.6942414,12.1787041 C24.4077678,12.1787041 23.7978461,11.30745 23.9769651,10.1749008 L23.9769651,10.1749008 Z M23.5113636,13.781368 C24.0654455,14.5655238 25.0678645,14.9312287 26.0934825,14.9312287 C28.7357574,14.9312287 30.90218,12.7708107 31.3100534,10.1922123 C31.7146896,7.6311959 30.2245491,5.40099098 27.5650098,5.40099098 C26.5218575,5.40099098 25.3780856,5.81917131 24.6640375,6.70773689 L24.6292388,6.70773689 L24.7889352,5.69717951 L21.6252191,5.69717951 L19.8858226,16.701868 L23.0495387,16.701868 L23.5113636,13.781368 Z" id="Fill-21" fill="#3BA949"></path>
                                        <path d="M35.4279558,4.04209426 C36.4012409,4.04209426 37.3275882,3.24062705 37.4818895,2.26496311 C37.6361908,1.28929918 36.9631458,0.487831967 35.9898607,0.487831967 C35.0163058,0.487831967 34.0899585,1.28929918 33.935927,2.26496311 C33.7816257,3.24062705 34.4546707,4.04209426 35.4279558,4.04209426" id="Fill-23" fill="#3BA949"></path>
                                        <polygon id="Fill-25" fill="#3BA949" points="36.7482839 5.69726066 33.584298 5.69726066 32.1721174 14.6351213 35.3355638 14.6351213"></polygon>
                                        <path d="M38.082073,14.6351213 L41.2457891,14.6351213 L42.2452407,8.31075246 L44.4529362,8.31075246 L44.865935,5.69726066 L42.6582395,5.69726066 L42.8869938,4.25121148 C43.0466903,3.2406541 43.4019609,2.75268689 44.2187867,2.75268689 C44.6358318,2.75268689 44.9441646,2.89226066 45.2845986,3.0491459 L45.7170199,0.313662295 C45.3180486,0.0869901639 44.8972268,0.000162295082 44.4105843,0.000162295082 C43.2112424,0.000162295082 42.0013799,0.505170492 41.0731443,1.42862951 C40.0472565,2.42187541 39.8692165,3.32775246 39.6736423,4.56498197 L39.4945233,5.69726066 L38.3820433,5.69726066 L37.9690446,8.31075246 L39.0817943,8.31075246 L38.082073,14.6351213 Z" id="Fill-27" fill="#3BA949"></path>
                                        <polygon id="Fill-29" fill="#3BA949" points="56.9296529 5.69726066 53.3313574 5.69726066 50.2777023 10.2793918 48.6203121 5.69726066 44.9702232 5.69726066 48.0613746 13.4157443 45.7816538 16.7019492 49.3222212 16.7019492"></polygon>
                                    </g>
                                </g>
                            </g>
                        </g>
                    </g>
                </g>
            </g>
        </g>
    </g>
</svg>