<?xml version="1.0" encoding="UTF-8"?>
<svg width="328px" height="54px" viewBox="0 0 328 54" version="1.1" xmlns="http://www.w3.org/2000/svg" xmlns:xlink="http://www.w3.org/1999/xlink">
    <!-- Generator: Sketch 47.1 (45422) - http://www.bohemiancoding.com/sketch -->
    <title>zipify_ocu_logo_sm@3x</title>
    <desc>Created with Sketch.</desc>
    <defs></defs>
    <g id="Mockups" stroke="none" stroke-width="1" fill="none" fill-rule="evenodd">
        <g id="Zipify-products" transform="translate(-811.000000, -678.000000)">
            <g id="Stacked-Group" transform="translate(200.000000, 558.000000)">
                <g id="Products" transform="translate(0.000000, 72.000000)">
                    <g id="Row-1">
                        <g id="Stacked-Group-2" transform="translate(550.000000, 0.000000)">
                            <g id="OCU">
                                <g id="zipify_ocu_logo_sm" transform="translate(61.000000, 48.000000)">
                                    <g id="Group-3" transform="translate(0.000000, 2.700000)" fill="#67B800">
                                        <path d="M32.0185278,-5.4e-05 L39.3512461,19.674846 L29.0819282,14.690646 L25.4250254,36.702126 L17.4879117,36.702126 L21.1448145,14.690646 L9.21955585,19.674846 L23.0898491,-5.4e-05 L4.60269918,-5.4e-05 L0.313572323,25.815996 C-1.77681977,38.399346 6.80386557,48.599946 19.4796876,48.599946 C32.1552395,48.599946 44.1258886,38.399346 46.2162807,25.815996 L50.5056778,-5.4e-05 L32.0185278,-5.4e-05 Z" id="Fill-1"></path>
                                    </g>
                                    <path d="M90.0299209,35.578386 C90.83371,30.387906 87.5647875,26.476956 82.5939934,26.476956 C77.6596738,26.476956 73.179799,30.387906 72.3762801,35.578386 C71.5784349,40.732146 74.8530313,44.606646 79.7873509,44.606646 C84.758145,44.606646 89.2320758,40.732146 90.0299209,35.578386 M93.9775387,35.578386 C92.8797924,42.669126 86.3795025,48.297816 79.2159176,48.297816 C72.0517924,48.297816 67.330916,42.669126 68.4286623,35.578386 C69.5320824,28.450926 76.0015717,22.785246 83.1654267,22.785246 C90.3292817,22.785246 95.0809588,28.450926 93.9775387,35.578386" id="Fill-4" fill="#272C30"></path>
                                    <path d="M115.020765,36.820953 L113.323216,47.786463 L109.485562,47.786463 L111.064231,37.588833 C111.522459,34.628013 110.110221,32.654313 107.514861,32.654313 C104.262149,32.654313 101.765945,34.847253 101.05861,39.416193 L99.7630913,47.786463 L95.9616415,47.786463 L98.768284,29.657043 L102.569464,29.657043 L102.224172,31.886703 C103.957925,30.131973 106.230689,29.145393 108.935473,29.145393 C113.284851,29.145393 115.722426,32.288733 115.020765,36.820953" id="Fill-6" fill="#272C30"></path>
                                    <path d="M121.875155,36.930492 L132.548123,36.930492 C132.421408,33.969942 130.564723,32.507892 128.079056,32.507892 C125.703352,32.507892 122.91265,34.006662 121.875155,36.930492 L121.875155,36.930492 Z M136.040215,39.635352 L121.34668,39.635352 C121.191866,42.998202 123.32954,45.008352 125.99758,45.008352 C128.007998,45.008352 130.145402,44.423532 131.820795,41.865012 L135.106739,42.596172 C133.019589,46.397232 129.508855,48.298032 125.488558,48.298032 C120.553968,48.298032 116.82952,44.496702 117.717876,38.758392 C118.612176,32.982822 123.482463,29.145582 128.599695,29.145582 C133.460525,29.145582 136.903985,32.873202 136.243662,38.319642 L136.040215,39.635352 Z" id="Fill-8" fill="#272C30"></path>
                                    <path d="M159.400003,38.429208 L163.076629,39.233538 C160.836016,44.971848 155.569373,48.297978 149.79452,48.297978 C142.667139,48.297978 137.903844,42.705738 139.012938,35.541828 C140.116358,28.414368 146.616919,22.785408 153.744029,22.785408 C159.519153,22.785408 163.713716,26.147988 164.264886,31.557438 L160.294032,32.654178 C159.836615,28.523988 157.01052,26.476848 153.172866,26.476848 C148.238276,26.476848 143.758401,30.388068 142.960556,35.541828 C142.162981,40.695318 145.431634,44.606538 150.365953,44.606538 C154.203607,44.606538 157.663818,42.559668 159.400003,38.429208" id="Fill-10" fill="#272C30"></path>
                                    <polygon id="Fill-12" fill="#272C30" points="165.663263 47.786409 169.737325 21.469509 173.538505 21.469509 169.464442 47.786409"></polygon>
                                    <path d="M182.763437,24.210711 C182.554317,25.563141 181.377948,26.549991 179.988946,26.549991 C178.56347,26.549991 177.692676,25.563141 177.902067,24.210711 C178.100109,22.931451 179.29323,21.834981 180.718976,21.834981 C182.107707,21.834981 182.96148,22.931451 182.763437,24.210711 L182.763437,24.210711 Z M174.800656,47.786301 L177.607029,29.657151 L181.408208,29.657151 L178.602106,47.786301 L174.800656,47.786301 Z" id="Fill-14" fill="#272C30"></path>
                                    <path d="M198.294886,40.98789 L201.662424,41.90157 C200.069976,45.81279 196.030227,48.29787 191.827017,48.29787 C186.637106,48.29787 182.844843,44.46036 183.733199,38.72151 C184.610477,33.05637 189.601805,29.14542 194.791716,29.14542 C198.885502,29.14542 202.119301,31.63077 202.652639,35.505 L198.833627,36.56529 C198.552098,33.89661 196.66137,32.65434 194.248652,32.65434 C190.885976,32.65434 188.016111,35.13969 187.461429,38.72151 C186.889996,42.41322 189.007406,44.78922 192.370082,44.78922 C194.78253,44.78922 197.010444,43.61958 198.294886,40.98789" id="Fill-16" fill="#272C30"></path>
                                    <polygon id="Fill-18" fill="#272C30" points="217.528141 47.786409 210.323759 40.256919 209.227093 40.256919 208.061531 47.786409 204.260352 47.786409 208.334414 21.469509 212.135594 21.469509 209.810144 36.492039 210.943014 36.492039 219.567199 29.656989 224.428029 29.656989 213.567555 38.429289 222.681848 47.786409"></polygon>
                                    <path d="M247.274202,36.967158 C246.227249,43.729038 241.389925,48.297978 235.176297,48.297978 C228.816501,48.297978 225.320086,43.729038 226.367039,36.967158 L228.483368,23.297058 L232.394241,23.297058 L230.277912,36.967158 C229.570577,41.536368 231.738511,44.533098 235.759078,44.533098 C239.596732,44.533098 242.655724,41.536368 243.363058,36.967158 L245.479388,23.297058 L249.390531,23.297058 L247.274202,36.967158 Z" id="Fill-20" fill="#272C30"></path>
                                    <path d="M267.470248,38.721618 C268.058702,34.920288 265.837272,32.507838 262.511071,32.507838 C259.513951,32.507838 256.179915,34.920288 255.59119,38.721618 C254.997062,42.559668 257.589991,44.935398 260.587111,44.935398 C263.913582,44.935398 266.876119,42.559668 267.470248,38.721618 M271.161734,38.721618 C270.273648,44.460198 265.439296,48.297978 260.687889,48.297978 C257.9469,48.297978 255.827599,47.347848 254.510465,45.703008 L253.226024,53.999838 L249.424844,53.999838 L253.193332,29.657178 L256.994782,29.657178 L256.671915,31.740498 C258.49834,30.095658 260.911869,29.145528 263.652857,29.145528 C268.404264,29.145528 272.044686,33.019758 271.161734,38.721618" id="Fill-22" fill="#272C30"></path>
                                    <path d="M276.374097,42.121026 C276.295744,44.277246 278.054894,45.191196 280.430868,45.191196 C282.623659,45.191196 284.165583,44.204346 284.386321,42.779016 C284.555995,41.682276 283.895942,40.987836 282.271342,40.622526 L278.448008,39.818466 C275.412522,39.123756 273.881675,37.442466 274.277761,34.883946 C274.7984,31.521096 277.980324,29.145366 282.329972,29.145366 C286.496706,29.145366 288.971837,31.338036 289.159883,34.372026 L285.422466,35.139906 C285.401662,33.385176 284.089932,32.179086 281.750433,32.179086 C279.520898,32.179086 278.364522,33.275556 278.166479,34.555086 C278.007883,35.578386 278.491237,36.236106 280.042347,36.601686 L284.208542,37.551816 C287.036529,38.173356 288.561161,39.891096 288.165346,42.449886 C287.576621,46.251216 284.153155,48.297816 279.621135,48.297816 C275.563823,48.297816 272.357583,46.580346 272.448094,42.925086 L276.374097,42.121026 Z" id="Fill-24" fill="#272C30"></path>
                                    <path d="M294.904179,36.930492 L305.577147,36.930492 C305.450432,33.969942 303.593747,32.507892 301.10835,32.507892 C298.732376,32.507892 295.941674,34.006662 294.904179,36.930492 L294.904179,36.930492 Z M309.06924,39.635352 L294.375974,39.635352 C294.22089,42.998202 296.358564,45.008352 299.026874,45.008352 C301.037022,45.008352 303.174426,44.423532 304.849819,41.865012 L308.135763,42.596172 C306.048614,46.397232 302.538149,48.298032 298.517312,48.298032 C293.582992,48.298032 289.858544,44.496702 290.7469,38.758392 C291.6412,32.982822 296.511487,29.145582 301.628719,29.145582 C306.489819,29.145582 309.933279,32.873202 309.272686,38.319642 L309.06924,39.635352 Z" id="Fill-26" fill="#272C30"></path>
                                    <polygon id="Fill-28" fill="#272C30" points="311.2797 47.786409 315.353493 21.469509 319.154672 21.469509 315.08088 47.786409"></polygon>
                                    <polygon id="Fill-30" fill="#272C30" points="320.124704 47.786409 324.198766 21.469509 327.999946 21.469509 323.925883 47.786409"></polygon>
                                    <polygon id="Fill-32" fill="#67B800" points="81.1715974 14.806314 81.5933502 12.144654 77.7859565 12.144654 83.0269318 5.763744 74.0023387 5.763744 73.580856 8.425404 77.2647769 8.425404 72.0059697 14.806314"></polygon>
                                    <path d="M86.4295671,4.089366 C87.416539,4.089366 88.3559591,3.278556 88.5121239,2.291436 C88.668829,1.304316 87.9863512,0.493506 86.9991091,0.493506 C86.0124072,0.493506 85.0729871,1.304316 84.9165522,2.291436 C84.7601173,3.278556 85.4425951,4.089366 86.4295671,4.089366" id="Fill-34" fill="#67B800"></path>
                                    <polygon id="Fill-36" fill="#67B800" points="87.7684771 5.763825 84.5603453 5.763825 83.1278445 14.806395 86.3359763 14.806395"></polygon>
                                    <path d="M92.5145885,10.293831 C92.6904764,9.183591 93.5963941,8.249391 94.900829,8.249391 C96.2052639,8.249391 96.8150629,9.183591 96.639175,10.293831 C96.4576132,11.439711 95.5600712,12.320991 94.2559064,12.320991 C92.9514715,12.320991 92.3330267,11.439711 92.5145885,10.293831 L92.5145885,10.293831 Z M92.0423117,13.942611 C92.6042886,14.735871 93.6207104,15.106041 94.6606379,15.106041 C97.3397549,15.106041 99.5368685,12.920121 99.9502458,10.311381 C100.360651,7.720461 98.8495275,5.464071 96.1528488,5.464071 C95.0950893,5.464071 93.9352013,5.887161 93.2113858,6.786261 L93.1759921,6.786261 L93.3378306,5.763771 L90.129969,5.763771 L88.3664962,16.897221 L91.5743578,16.897221 L92.0423117,13.942611 Z" id="Fill-38" fill="#67B800"></path>
                                    <path d="M104.125924,4.089366 C105.112896,4.089366 106.052045,3.278556 106.20848,2.291436 C106.364915,1.304316 105.682438,0.493506 104.695466,0.493506 C103.708494,0.493506 102.769073,1.304316 102.612909,2.291436 C102.456474,3.278556 103.138952,4.089366 104.125924,4.089366" id="Fill-40" fill="#67B800"></path>
                                    <polygon id="Fill-42" fill="#67B800" points="105.464671 5.763825 102.25654 5.763825 100.824309 14.806395 104.032171 14.806395"></polygon>
                                    <path d="M106.817037,14.806314 L110.025168,14.806314 L111.038618,8.407854 L113.27707,8.407854 L113.69585,5.763744 L111.457399,5.763744 L111.689214,4.300884 C111.851053,3.278664 112.211205,2.785104 113.03985,2.785104 C113.462684,2.785104 113.775284,2.926044 114.120305,3.084534 L114.558809,0.317304 C114.154348,0.088074 113.727732,5.4e-05 113.234111,5.4e-05 C112.018025,5.4e-05 110.791132,0.511164 109.850091,1.445364 C108.809623,2.450034 108.629142,3.366684 108.431099,4.618134 L108.249537,5.763744 L107.121261,5.763744 L106.70248,8.407854 L107.830486,8.407854 L106.817037,14.806314 Z" id="Fill-44" fill="#67B800"></path>
                                    <polygon id="Fill-46" fill="#67B800" points="125.928413 5.763825 122.279886 5.763825 119.183609 10.399455 117.502812 5.763825 113.801599 5.763825 116.935972 13.572495 114.624571 16.897005 118.214739 16.897005"></polygon>
                                </g>
                            </g>
                        </g>
                    </g>
                </g>
            </g>
        </g>
    </g>
</svg>